<svg width="256" height="256" viewBox="0 0 256 256" fill="none" xmlns="http://www.w3.org/2000/svg">
<circle cx="128" cy="128" r="128" fill="black"/>
<g filter="url(#filter0_i)">
<path d="M58.8 102.3L75.7 101.5C74.4 111.4 70.3 117.5 56.7 120.8C58.1 122.1 60 124.7 60.7 126.4C76.2 121.9 81.1 114 82.7 101.2L93.9 100.6V113.7C93.9 120.3 95.5 122.1 103.2 122.1H114.1C119.6 122.1 121.5 119.9 122.3 111.1C120.3 110.7 117.7 109.7 116.2 108.6C115.9 115.1 115.5 116 113.2 116H103.9C101.1 116 100.7 115.6 100.7 113.6V100.3L113 99.7C115.1 102.3 116.8 104.7 118.1 106.8L124.5 102.9C120.6 97 112.4 88.2 105.4 81.9L99.6 85.2C102.2 87.7 105 90.6 107.6 93.5C97.5 93.9 87.3 94.2 78.1 94.5C81.5 89.6 85.3 83.6 88.3 78.4L80.4 76.2C78 81.7 73.9 89.2 70.3 94.8C65.9 94.9 61.8 95 58.2 95.1L58.8 102.3ZM54.7 76.7C49 91.9 39.8 106.8 30 116.4C31.4 118 33.4 121.9 34.2 123.6C37.7 120 41.1 115.9 44.3 111.3V167.4H51.3V100.4C55.3 93.5 58.8 86.2 61.6 78.8L54.7 76.7ZM79.4 135.1H103.8C100.6 140.2 96.3 144.5 91.1 148.1C86.1 144.5 81.9 140.4 78.8 135.7L79.4 135.1ZM109.1 128.8L107.8 129.1H84.9C86.9 126.7 88.7 124.1 90.2 121.5L83.5 119.3C77.8 129.2 67.5 137.8 56.8 143.2C58.5 144.3 61.2 146.9 62.4 148.1C66.2 145.9 70.2 143.2 73.9 140.1C77 144.5 80.7 148.4 84.9 151.8C76.3 156.5 66.1 159.6 55.9 161.3C57.2 162.8 58.8 165.8 59.5 167.6C70.7 165.4 81.6 161.8 90.9 156.2C99.3 161.6 109.3 165.5 120.3 167.7C121.3 165.8 123.4 162.8 125 161.3C114.7 159.6 105.2 156.4 97.3 152C104.4 146.6 110.2 139.7 113.9 131.2L109.1 128.8ZM191.1 87.1H205.3V103.8C205.3 109.4 205.7 111 207.1 112.4C208.4 113.5 210.5 114 212.4 114H216.7C218.2 114 219.9 113.8 221 113.1C222.3 112.6 223.2 111.5 223.8 110C224.4 108.4 224.6 104.2 224.7 100.4C223 99.8 220.6 98.7 219.4 97.6C219.3 101.4 219.2 104.3 219 105.7C218.8 106.9 218.4 107.6 218 107.8C217.7 108.1 216.9 108.2 216.2 108.2H213.9C213.3 108.2 212.8 108 212.5 107.8C212.1 107.4 212.1 106.2 212.1 104.2V80.5H184.5V94.6C184.5 101.2 183.4 108.8 175.4 114.5C176.8 115.4 179.5 117.9 180.4 119.2C189.5 112.7 191.1 102.8 191.1 94.7V87.1ZM164.9 91.9C164 95.6 162 100.8 160.5 104.4L163.8 105.4H147.6L151.1 104.5C150.7 101 149 95.8 147 91.9H164.9ZM181 145C177.8 141 171.1 135.2 165.2 130.9C168.5 127.8 172.4 123.7 175.7 119.9L170.1 116.3C168 119.4 164.7 123.5 161.7 126.8C159.9 123 157.5 119.4 154.6 116.3C156.1 114.8 157.6 113.3 158.9 111.8H178.3V105.4H165.8C167.4 102.1 169.7 97.4 171.5 93.1L166.6 91.9H177.2V85.5H159V76.7H152.1V85.5H134.6V91.9H146.5L141.1 93.1C142.8 96.9 144.3 101.9 144.8 105.4H133.3V111.8H150.8C145.8 116.7 138.7 121 131.8 123.9C133.2 125 135.7 127.4 136.6 128.5C141.1 126.3 145.8 123.3 150.1 120C151.4 121.5 152.5 123.1 153.6 124.8C148.6 130 139.9 135.7 132.8 138.4C134.1 139.7 135.8 142 136.5 143.4C143 140.2 150.7 134.7 156 129.5C156.9 131.7 157.7 133.9 158.2 136.1C152 143.3 140.8 150.9 131.5 154.4C132.9 155.8 134.5 158.2 135.4 159.8C143.4 156.1 152.7 149.6 159.4 142.9C160.2 150.4 158.9 156.8 156.6 159.1C155.2 161 153.5 161.2 151.3 161.2C149.6 161.1 146.9 161.1 144.1 160.8C145.1 162.5 145.6 165.4 145.7 167.1C148.3 167.2 150.9 167.3 152.8 167.3C156.6 167.3 159.4 166.5 161.9 163.6C165.8 159.9 167.4 149.6 165.5 138.9C170 142.6 174.3 146.8 176.6 149.9L181 145ZM215.1 119.9L213.9 120.2H179V126.9H210.7C208.1 133.8 204.3 139.8 199.6 144.9C195.3 139.7 191.9 133.6 189.6 126.9L183.2 128.5C186 136.5 189.8 143.6 194.7 149.6C188.2 155.1 180.5 159.1 172.4 161.5C173.8 163 175.5 165.9 176.4 167.7C184.8 164.8 192.7 160.6 199.4 154.9C205.1 160.5 211.8 164.8 219.7 167.7C220.8 165.8 222.9 162.9 224.5 161.5C216.8 159.1 210.1 155.2 204.5 150C211.4 142.7 216.7 133.4 219.7 121.7L215.1 119.9Z" fill="white"/>
</g>
<defs>
<filter id="filter0_i" x="30" y="76.2" width="194.7" height="95.5" filterUnits="userSpaceOnUse" color-interpolation-filters="sRGB">
<feFlood flood-opacity="0" result="BackgroundImageFix"/>
<feBlend mode="normal" in="SourceGraphic" in2="BackgroundImageFix" result="shape"/>
<feColorMatrix in="SourceAlpha" type="matrix" values="0 0 0 0 0 0 0 0 0 0 0 0 0 0 0 0 0 0 127 0" result="hardAlpha"/>
<feOffset dy="4"/>
<feGaussianBlur stdDeviation="2"/>
<feComposite in2="hardAlpha" operator="arithmetic" k2="-1" k3="1"/>
<feColorMatrix type="matrix" values="0 0 0 0 0 0 0 0 0 0 0 0 0 0 0 0 0 0 0.25 0"/>
<feBlend mode="normal" in2="shape" result="effect1_innerShadow"/>
</filter>
</defs>
</svg>
